PathFileType	4	(X/Y/Z)	/Users/visionmauri/Downloads/Videos/OAW11-top_Sports2D/OAW11-top_Sports2D_px_person00.trc
DataRate	CameraRate	NumFrames	NumMarkers	Units	OrigDataRate	OrigDataStartFrame	OrigNumFrames
30.0	30.0	13	22	m	30.0	812	2166
Frame#	Time	Hip			RHip			RKnee			RAnkle			RBigToe			RSmallToe			RHeel			LHip			LKnee			LAnkle			LBigToe			LSmallToe			LHeel			Neck			Head			Nose			RShoulder			RElbow			RWrist			LShoulder			LElbow			LWrist			
		X1	Y1	Z1	X2	Y2	Z2	X3	Y3	Z3	X4	Y4	Z4	X5	Y5	Z5	X6	Y6	Z6	X7	Y7	Z7	X8	Y8	Z8	X9	Y9	Z9	X10	Y10	Z10	X11	Y11	Z11	X12	Y12	Z12	X13	Y13	Z13	X14	Y14	Z14	X15	Y15	Z15	X16	Y16	Z16	X17	Y17	Z17	X18	Y18	Z18	X19	Y19	Z19	X20	Y20	Z20	X21	Y21	Z21	X22	Y22	Z22
812	27.07916859122402	538.4250276874789	701.6403452242849	0.0	561.843692168855	702.6615168242952	0.0	555.6824437861536	782.8005809012396	0.0	552.6824033113788	852.6163463928899	0.0	548.8866386098072	866.0898920277064	0.0	565.7498793424141	866.4028312634908	0.0	551.2126051985052	869.6960637820175	0.0	514.3383080606918	702.6316613080854	0.0	517.0365879958429	793.0164358622981	0.0	518.2514183140223	881.9664005313524	0.0	516.4448051730199	889.7030807244677	0.0	501.9316928335111	894.9826470522618	0.0	518.6400231870191	901.9019334952917	0.0	537.4832274595475	589.5175043610942	0.0	536.4380322502116	543.2610265830488	0.0	532.4999198970482	572.4160862911067	0.0	575.2769803653862	605.9584103113244	0.0	593.1357923856442	668.5193152881335	0.0	609.7560593632039	727.7590616245354	0.0	501.3631940253569	599.4977706928864	0.0	477.45416126081903	653.4898889864978	0.0	469.71328630423574	696.553413329199	0.0
813	27.112517321016167	539.8283279432903	700.6678708932984	0.0	562.9615245920422	701.5081954927306	0.0	555.7222494687244	782.0698389937456	0.0	552.228407627478	853.6933716856805	0.0	549.5696302759397	869.4707293365929	0.0	566.0753983337388	868.9274594707034	0.0	550.8819845493254	872.0319347196884	0.0	515.8439383420488	701.8446575291097	0.0	517.1316784538802	790.4777518488296	0.0	517.9345989816238	877.2694267358182	0.0	516.3432316236276	890.5826829838877	0.0	500.75434179431863	894.8148740844772	0.0	518.2409887681416	898.2449125415325	0.0	539.1773664250752	589.6602114661781	0.0	538.5187623722649	544.253105183791	0.0	535.3743966848372	572.9973540576946	0.0	576.9150433642927	605.7903362325717	0.0	594.2901158564108	668.0271467026175	0.0	611.5956447722791	727.497552368841	0.0	503.43582776881163	599.1442481961964	0.0	479.5160466849896	652.9968537805236	0.0	471.28372076168074	695.7870225279394	0.0
814	27.145866050808316	541.1251625487919	698.8173565402521	0.0	563.8872098290228	699.721209097218	0.0	556.1898105653036	781.198973049407	0.0	551.942945653664	853.2990608556404	0.0	549.9120761323885	873.2987871672789	0.0	566.3175042708611	871.5171933712561	0.0	550.731981740329	873.5706185165977	0.0	517.3652691426055	700.2725096318759	0.0	517.0393552793778	787.6374469248441	0.0	517.6164571010909	869.2817212567412	0.0	515.9444331650182	893.5705953096832	0.0	499.43727465649766	895.144428494175	0.0	518.1943527202844	891.4434561214107	0.0	541.0427527571206	589.2961416008391	0.0	540.1901285617396	544.6698475633611	0.0	538.4222619271966	572.611521799096	0.0	578.7640538186414	604.8689772760558	0.0	595.2265181517173	666.9687133257718	0.0	613.2220207041582	726.4931540001218	0.0	505.2463184744666	598.0770218959249	0.0	481.8488156142403	652.1507599175259	0.0	472.9640705217228	695.8464332793598	0.0
815	27.17921478060046	542.3883549506885	696.3731462728051	0.0	565.0268934589834	697.9718497867586	0.0	557.0377099952206	780.4704099656739	0.0	552.0422234753418	851.9258014651222	0.0	549.7654101780055	875.7212776224098	0.0	566.2569020867635	873.356692504941	0.0	550.7383473626467	873.8154557180676	0.0	518.9822170161063	698.0754220296395	0.0	516.6177263338463	784.9193558093046	0.0	517.5804288874938	859.6418606388704	0.0	515.5464618197931	896.9902882638048	0.0	498.8168931570938	895.5565048476562	0.0	518.7453254735717	881.7427024165268	0.0	542.8313027476487	588.2532721750275	0.0	541.4284404447284	544.2608398408212	0.0	539.7351790845189	572.0504478602671	0.0	580.3493407846022	603.3401116618124	0.0	595.9942094517528	664.9181508355346	0.0	614.3700761534076	724.2340469094298	0.0	506.6831928799098	596.2877434987754	0.0	484.4907831784661	651.2981323182657	0.0	474.70102883924585	696.4980339449023	0.0
816	27.21256351039261	543.5915297071795	694.0428724502008	0.0	566.3537800585543	696.2922292471573	0.0	557.8904779687391	779.6459273926249	0.0	552.3589719926763	850.5093423723496	0.0	549.4496487416546	876.8815432365598	0.0	566.1502519429062	874.9219740083201	0.0	550.9043990331147	873.3806006601129	0.0	520.5331510063859	695.7571170730996	0.0	515.856158620986	781.7483535181466	0.0	517.8414167362158	849.727518057213	0.0	516.1000489736857	897.7864832288465	0.0	499.2573739569328	894.7046219234094	0.0	520.007889976399	870.4845119071788	0.0	544.3340515233787	587.1215228760623	0.0	543.2028679647267	543.982430723497	0.0	540.1080907684944	572.1076660162655	0.0	581.5189378696344	601.6567304378813	0.0	597.0892562889596	662.6886618434502	0.0	615.1059105612089	721.6059992068537	0.0	508.14291748205807	594.3146853942357	0.0	487.19996299716644	650.3829889142467	0.0	476.2723854319665	697.3307479373982	0.0
817	27.245912240184758	544.6536671132078	692.1244167209528	0.0	567.5312656845045	694.3963489333389	0.0	558.4692682851926	778.4539070759857	0.0	552.6282141654962	849.7480247262171	0.0	549.2200128938306	877.2283593804848	0.0	566.1552942561821	876.4698916916257	0.0	551.2292859085063	873.070972592003	0.0	521.7362180484571	693.5474674299498	0.0	515.0141829075669	777.9002882901525	0.0	518.3182438354737	841.169805549908	0.0	517.5802440311955	894.8152706944828	0.0	500.0541932248315	891.2280578574989	0.0	521.7555494127319	859.7506716469651	0.0	545.5328478347836	586.5591156059374	0.0	545.6643194384664	545.4269790830164	0.0	540.7485430132526	573.7960722018969	0.0	582.1759038481882	600.3014083336828	0.0	598.7225214325878	661.1760770825093	0.0	615.8458740555844	719.5994828133628	0.0	509.7333944998984	592.7559656639796	0.0	489.5414706762873	649.2570013850408	0.0	477.6083556140649	698.2530214434111	0.0
818	27.279260969976907	545.6155870635155	690.3831591855077	0.0	568.4599741521824	693.243293766389	0.0	558.8064924552832	777.4879370983726	0.0	552.7689938462564	849.4228333278123	0.0	548.6563473710294	876.0899843718946	0.0	566.2248950023363	877.2855984090785	0.0	551.6445692322869	872.8344275062034	0.0	522.5574212353982	691.9624526902205	0.0	514.4493568046228	774.6112443976859	0.0	518.9329086700551	836.5317209572615	0.0	518.0703097411166	889.5726219226941	0.0	500.2557495640042	885.86471037247	0.0	523.1290453234175	852.4272409320691	0.0	546.3474173960652	585.7850578276109	0.0	547.466347195733	549.0269211705273	0.0	541.1050045111564	578.2978914544831	0.0	582.1521756013854	599.1756413491827	0.0	600.2823922556229	659.956084999654	0.0	616.7423155211912	718.058581273199	0.0	510.96164602905657	591.693504299917	0.0	491.19520090384543	648.3989148027213	0.0	478.6977646241195	699.2521302348409	0.0
819	27.31260969976905	546.4733198478704	688.9591212954163	0.0	569.1475428000491	694.1643084710676	0.0	558.9995299363268	777.3620440720995	0.0	552.7778747184543	849.0008755606549	0.0	547.3270085520536	873.3012268525639	0.0	566.3088148709465	877.0607414452685	0.0	552.0864881399447	872.557383365484	0.0	523.1976477639223	691.8136558436133	0.0	514.3119055951747	772.871044598472	0.0	519.2784119305205	836.2480109225031	0.0	516.0757094329751	884.0843187351674	0.0	499.6548144165255	880.8330488909583	0.0	523.3419665219682	850.548774034997	0.0	546.688438921138	583.4712802934001	0.0	547.8167585665922	552.1447157719617	0.0	540.7016170970329	583.5295787293701	0.0	581.7184750906537	597.8526831508365	0.0	601.1235360756749	658.439562212577	0.0	617.473624962118	716.1970123429377	0.0	511.51200209588745	590.8256329099682	0.0	492.2982097452129	648.141516879356	0.0	479.42558657031174	699.7965734199516	0.0
820	27.3459584295612	547.0913506548194	688.3170606059006	0.0	569.4728720225688	695.9079046300143	0.0	559.0014382661313	777.286370359547	0.0	552.7346844246046	848.409027072136	0.0	545.6559938918448	870.8549151079184	0.0	566.26728178598	876.4983586458383	0.0	552.518663052361	872.1420408998738	0.0	523.7719727501811	692.8138204997771	0.0	514.5295266400112	771.732679723926	0.0	518.7703534497984	837.5379676310253	0.0	513.3139434262151	878.5453194372986	0.0	498.8304429418387	876.505653776496	0.0	522.3150683039353	853.3233047486303	0.0	546.7032125185368	580.2750350047651	0.0	547.450306816888	550.2469466595048	0.0	540.3920062127798	582.4411574656743	0.0	581.5062921563085	596.3530011507713	0.0	601.3784430766367	656.9753649763414	0.0	617.7982588805432	713.771155994861	0.0	511.61059083937965	589.9596360277428	0.0	493.2626680582888	648.1680602133922	0.0	479.67766616193694	699.6461644142919	0.0
821	27.37930715935335	547.3747162721173	688.327987231713	0.0	569.4908769307947	695.9856341252479	0.0	558.8870841550983	776.2461850282037	0.0	552.7497126977585	847.880231040094	0.0	544.605148532018	870.1387134766371	0.0	566.0430093234701	875.9990620839624	0.0	552.743715318351	871.3011970907995	0.0	524.1002728044996	693.6097927901586	0.0	514.933927286429	770.0808479050777	0.0	517.3036774490503	838.692163153192	0.0	511.8644470481185	871.9490181188125	0.0	498.3144949149234	871.501665309562	0.0	520.4999392199165	857.7461987634449	0.0	546.5627036488571	578.1999414184847	0.0	546.9951461381834	543.2329963602194	0.0	540.0760575332305	572.786187009244	0.0	581.5441770944781	595.1417306933993	0.0	601.4893832988743	655.8464681202814	0.0	617.8588794721346	711.3327706527344	0.0	511.5615600022791	589.2078068713282	0.0	494.2196183701797	648.1565082439356	0.0	479.54328574097127	699.7286566046655	0.0
822	27.412655889145498	547.4239573133354	688.1569984187554	0.0	569.5397871575809	694.7538279463158	0.0	558.8898726427132	774.8535556303607	0.0	552.8019172086523	847.6767950641012	0.0	544.730810696556	869.6083542507313	0.0	565.9209234769988	875.1930112752973	0.0	552.5144443425332	870.7441215725646	0.0	524.0936156466882	693.6957585755271	0.0	515.2959155352547	768.5424753567653	0.0	515.377489718328	840.4254839960752	0.0	510.05177874307685	864.2681232754156	0.0	498.0258488878459	865.38681071074	0.0	518.4247126863784	860.9907723245742	0.0	546.1989605871238	577.6668123275551	0.0	546.3439158282137	537.1944934498814	0.0	538.3938723265643	563.0388248106668	0.0	581.1525700254552	594.3812736521554	0.0	601.4918381971298	654.6230226182669	0.0	617.8812220790771	709.4089968215312	0.0	511.54079355811444	588.7925703406972	0.0	494.9987513866317	648.0983035086239	0.0	479.2774355904394	700.7667194708184	0.0
823	27.446004618937646	547.4552751449429	687.2233959821516	0.0	569.7516259597382	694.0780411152027	0.0	559.0269976446806	774.2901391501997	0.0	552.8276935888366	847.8067967812073	0.0	545.591362058055	868.0110173046896	0.0	566.073131904616	873.9943837952088	0.0	551.9678260362643	871.3107115857938	0.0	524.0722659076603	693.6355754810573	0.0	515.5217198299256	768.077052081706	0.0	513.67552995366	842.4439553626784	0.0	505.9223804177477	856.3711405143943	0.0	497.64509666343264	858.8649928393471	0.0	516.5612943006546	862.0167835724899	0.0	545.5680557133809	577.4983478747455	0.0	545.6988767468378	536.1935143684713	0.0	535.9410856970798	560.0327541636683	0.0	580.16599164121	593.7834767035118	0.0	601.1631678467672	653.0295883907619	0.0	617.8521744173091	707.7198379055702	0.0	511.5996908908206	588.7343474832657	0.0	495.4766203893971	648.0509214354564	0.0	479.0456111524386	702.1022501666147	0.0
824	27.47935334872979	547.3400153811376	686.1660108695447	0.0	569.7483076225883	694.1179983350737	0.0	559.1619143344542	774.5329301950741	0.0	552.7823465151556	848.0420199276913	0.0	546.1727742708745	866.5066830391695	0.0	566.1841462272021	872.988836885821	0.0	551.5458404460018	872.1670103653639	0.0	524.1606766462305	693.6763668957641	0.0	515.7548337594415	768.2675759039844	0.0	512.6272269124296	842.4680556986035	0.0	501.9913016942624	848.978074271481	0.0	497.1553950697484	852.5881585784745	0.0	515.3171100447656	860.9668961120766	0.0	544.8532301292263	576.8830655050125	0.0	545.5387386254056	538.1867750021813	0.0	534.5425491475254	561.4243576134838	0.0	579.193660393489	593.2488758817997	0.0	600.530711291994	651.4830192417489	0.0	617.4497643999183	705.6320999438374	0.0	511.4182574533169	588.8176550775551	0.0	495.65190922273774	648.042908876684	0.0	478.77141654547034	702.961035169039	0.0
